<?xml version="1.0" encoding="UTF-8"?>
<!DOCTYPE svg PUBLIC "-//W3C//DTD SVG 1.1//EN" "http://www.w3.org/Graphics/SVG/1.1/DTD/svg11.dtd">
<!-- Creator: CorelDRAW 2021 (64-Bit) -->
<svg xmlns="http://www.w3.org/2000/svg" xml:space="preserve" width="214mm" height="301mm" version="1.1" style="shape-rendering:geometricPrecision; text-rendering:geometricPrecision; image-rendering:optimizeQuality; fill-rule:evenodd; clip-rule:evenodd"
viewBox="0 0 21400 30100"
 xmlns:xlink="http://www.w3.org/1999/xlink"
 xmlns:xodm="http://www.corel.com/coreldraw/odm/2003">
 <defs>
  <style type="text/css">
   <![CDATA[
    .str0 {stroke:#AE2482;stroke-width:35.28;stroke-miterlimit:22.9256}
    .fil2 {fill:#99FF00}
    .fil1 {fill:#AE2482;fill-rule:nonzero}
    .fil0 {fill:#AE2482;fill-rule:nonzero}
   ]]>
  </style>
 </defs>
 <g id="Слой_x0020_1">
  <metadata id="CorelCorpID_0Corel-Layer"/>
  <path class="fil0" d="M7679.19 16149.02l-20.72 -382.95 1389.63 -171.47 67.16 502.27 -1436.07 52.15zm4533.99 -1067.41l-733.04 410.1 -295.08 -162.89 -437.25 133.6 -261.49 621.59 274.35 578 788.77 -94.31 16.43 -140.04 -608.72 54.3 77.16 -860.21 1268.89 16.43 0 1693.28 -2131.25 274.36 -646.59 -1316.05 236.49 -1208.16 908.8 -661.59 1113.13 77.87 429.4 583.72zm305.79 699.46l16.43 1785.45 630.16 47.87 133.61 -1779.02 -780.2 -54.3zm805.2 -718.03l-30.72 543.7 -774.48 -62.16 30.72 -542.27 774.48 60.73zm161.47 623.72l690.89 -105.02 299.36 1172.43 450.11 -1174.58 721.61 107.17 -761.62 1914.77 -941.66 -66.45 -458.69 -1848.32zm4123.17 81.45l-485.12 -284.35 -797.34 66.44 -467.26 653.02 35.72 800.2 497.98 531.56 598.73 85.74 623.72 -217.91 285.08 -502.27 -508.7 -297.22 -467.26 374.38 -374.38 -313.65 1234.59 -236.49 -175.76 -659.45zm-943.8 192.19l393.67 121.46 -515.13 92.17 121.46 -213.63z"/>
  <path class="fil1 str0" d="M4874.85 14260.01l-347.49 0 0 -1079.96c0,-188.05 29.87,-337.35 89,-447.92 59.75,-110.13 167.05,-200.23 321.88,-269.45 155.46,-69.21 358.45,-104.03 610.83,-104.03 244.47,0 445.03,30.03 600.48,90.54 156.05,60.51 267.01,147.56 333.45,262.05 66.45,114.48 99.98,270.75 99.98,468.81l0 1079.96 -347.49 0 0 -1079.53c0,-162.36 -21.33,-282.5 -63.4,-359.11 -42.05,-77.05 -113.99,-136.69 -217.01,-178.04 -102.42,-41.79 -228,-62.68 -376.14,-62.68 -253.59,0 -434.65,41.35 -542.55,123.62 -107.91,82.71 -161.54,241.15 -161.54,476.21l0 1079.53z"/>
  <rect class="fil2" x="3709.97" y="13797.9" width="3690.47" height="4332.12" rx="218.36" ry="189.73"/>
  <path class="fil1 str0" d="M6235.42 15013.1l347.48 0 0 1079.96c0,188.05 -29.87,337.35 -89,447.92 -59.74,110.13 -167.04,200.23 -321.88,269.45 -155.45,69.21 -358.45,104.03 -610.82,104.03 -244.47,0 -445.03,-30.03 -600.48,-90.54 -156.05,-60.51 -267.01,-147.56 -333.45,-262.05 -66.45,-114.48 -99.98,-270.75 -99.98,-468.81l0 -1079.96 347.48 0 0 1079.53c0,162.36 21.33,282.5 63.4,359.11 42.06,77.05 114,136.69 217.02,178.04 102.41,41.79 227.99,62.68 376.13,62.68 253.6,0 434.65,-41.35 542.56,-123.62 107.9,-82.71 161.54,-241.15 161.54,-476.21l0 -1079.53z"/>
 </g>
</svg>
