<?xml version="1.0" encoding="utf-8"?>
<!-- Generator: Adobe Illustrator 24.1.1, SVG Export Plug-In . SVG Version: 6.00 Build 0)  -->
<svg version="1.1" id="Слой_2" xmlns="http://www.w3.org/2000/svg" xmlns:xlink="http://www.w3.org/1999/xlink" x="0px" y="0px"
	 viewBox="0 0 1024 512" style="enable-background:new 0 0 1024 512;" xml:space="preserve">
<style type="text/css">
	.st0{fill:#7626EA;}
	.st1{fill:#89D915;}
</style>
<path class="st0" d="M130.2,159.2h44.4l-20.1,92.3c-0.9,4-1.6,8-2,12c-0.4,3.9-0.6,7.8-0.6,11.5c0,6.2,2.3,11.5,6.8,15.7
	c4.5,4.3,10.1,6.4,16.7,6.4c8.9,0,15.9-3.4,21.1-10.3c5.2-6.8,9.8-19.2,13.8-37l20.1-90.7h42.7l-21.2,103.1
	c-4.8,23.3-13.5,40.3-26.1,51c-12.6,10.7-30.2,16-52.9,16c-20.9,0-37-4.8-48.2-14.4c-11.2-9.6-16.8-23.3-16.8-41.2
	c0-4,0.2-7.9,0.6-11.7c0.4-3.8,1-7.4,1.9-10.8L130.2,159.2z"/>
<path class="st1" d="M280.9,240.4h64.2l-6.5,30.1h-64.2L280.9,240.4z"/>
<path class="st0" d="M525.6,163.3l-9.6,34c-6.2-3.3-12.7-5.8-19.3-7.5c-6.6-1.7-13.6-2.5-20.8-2.5c-21.9,0-39.1,5.6-51.5,16.8
	c-12.4,11.2-18.7,26.5-18.7,46.1c0,14.2,3.8,25.4,11.4,33.5c7.6,8.1,18.1,12.1,31.5,12.1c2.7,0,5.5-0.2,8.4-0.6
	c2.9-0.4,6-1.1,9.3-1.9l7.5-34.6h-27.3l6.4-30.1h69l-19.6,91.6c-8.2,2.7-17,4.8-26.4,6.1c-9.3,1.4-19.6,2-30.7,2
	c-26.8,0-47.6-6.9-62.4-20.6c-14.8-13.8-22.2-33.1-22.2-57.9c0-12.6,2.1-24.3,6.2-35.3c4.2-10.9,10.3-20.5,18.4-28.7
	c10.1-10.6,22-18.3,35.6-23.2c13.6-4.9,30.2-7.3,49.7-7.3c10,0,19.6,0.7,28.7,2C508.5,158.4,517.2,160.5,525.6,163.3z"/>
<polygon class="st0" points="562.5,202.1 604.2,202.1 578.2,324.9 536.5,324.9 "/>
<polygon class="st0" points="573.4,150.3 615.4,150.3 608.7,181.4 567,181.4 "/>
<path class="st0" d="M621.7,202.1h42.4l9.6,88.4l43.7-88.4h44.9l-72.1,122.8h-48L621.7,202.1z"/>
<path class="st0" d="M888.8,274.5h-88c0.8,9,3.7,15.7,8.9,20c5.1,4.3,12.7,6.5,22.6,6.5c6.8,0,13.7-0.8,20.8-2.4
	c7.1-1.6,14.1-3.9,20.9-6.9l-4.8,30.3c-7.3,2.3-14.8,4.1-22.4,5.2c-7.6,1.2-15.3,1.7-23,1.7c-19,0-34-5.2-45-15.5
	c-11-10.3-16.6-24.4-16.6-42.1c0-9.9,2-19.8,5.9-29.4c4-9.7,9.3-17.9,16-24.5c6.5-6.4,14.4-11.2,23.6-14.4
	c9.2-3.2,19.6-4.8,31.1-4.8c16.9,0,30,4.6,39.1,13.8c9.1,9.2,13.7,22.2,13.7,39.2c0,3.5-0.2,7.2-0.7,11.1
	C890.6,266.2,889.8,270.3,888.8,274.5z M856.1,250.9c0.2-1.6,0.4-2.7,0.5-3.6c0.1-0.8,0.1-1.5,0.1-2.2c0-6.8-1.9-12.2-5.8-16.2
	c-3.9-4-9.1-5.9-15.6-5.9c-6.7,0-12.6,2.5-17.7,7.4c-5.1,4.9-8.9,11.8-11.2,20.5H856.1z"/>
</svg>
